<svg xmlns="http://www.w3.org/2000/svg" viewBox="0 0 100 100" width="128" height="128">
  <defs>
    <filter id="safe-shadow" x="-20%" y="-20%" width="140%" height="140%">
      <feGaussianBlur in="SourceAlpha" stdDeviation="2" result="blur" />
      <feOffset dx="2" dy="4" in="blur" result="offsetBlur" />
      <feColorMatrix in="offsetBlur" type="matrix" values="0 0 0 0 0   0 0 0 0 0   0 0 0 0 0   0 0 0 0.5 0" result="shadowMatrix" />
      <feMerge>
        <feMergeNode in="shadowMatrix" />
        <feMergeNode in="SourceGraphic" />
      </feMerge>
    </filter>

    <radialGradient id="button-red" cx="40%" cy="40%" r="60%">
      <stop offset="0%" stop-color="#fca5a5" />
      <stop offset="30%" stop-color="#ef4444" />
      <stop offset="80%" stop-color="#b91c1c" />
      <stop offset="100%" stop-color="#7f1d1d" />
    </radialGradient>

    <linearGradient id="metal-base" x1="0" y1="0" x2="1" y2="1">
      <stop offset="0%" stop-color="#455A64" />
      <stop offset="100%" stop-color="#1e293b" />
    </linearGradient>

    <pattern id="hazard-ring" width="10" height="10" patternTransform="rotate(45)" patternUnits="userSpaceOnUse">
      <rect width="10" height="5" fill="#111" />
      <rect y="5" width="10" height="5" fill="#FBC02D" />
    </pattern>
  </defs>

  <g filter="url(#safe-shadow)">
    <polygon points="50,18 73,27 82,50 73,73 50,82 27,73 18,50 27,27" fill="url(#metal-base)" stroke="#111" stroke-width="2" />

    <circle cx="50" cy="24" r="2" fill="#94a3b8" />
    <circle cx="50" cy="76" r="2" fill="#94a3b8" />
    <circle cx="24" cy="50" r="2" fill="#94a3b8" />
    <circle cx="76" cy="50" r="2" fill="#94a3b8" />
    <circle cx="32" cy="32" r="2" fill="#94a3b8" />
    <circle cx="68" cy="68" r="2" fill="#94a3b8" />
    <circle cx="68" cy="32" r="2" fill="#94a3b8" />
    <circle cx="32" cy="68" r="2" fill="#94a3b8" />

    <circle cx="50" cy="50" r="22" fill="url(#hazard-ring)" stroke="#111" stroke-width="2" />
    <circle cx="50" cy="50" r="18" fill="#0f172a" />
    <circle cx="50" cy="50" r="18" fill="none" stroke="#000" stroke-width="2" opacity="0.8" />
  </g>

  <g>
    <circle cx="50" cy="50" r="20" fill="none" stroke="#334155" stroke-width="2" opacity="0.6" />

    <g>
      <circle cx="50" cy="50" r="16" fill="url(#button-red)" stroke="#450a0a" stroke-width="1.5" />
      <path d="M 40 38 A 12 12 0 0 1 60 38 A 14 14 0 0 0 40 38 Z" fill="#ffffff" opacity="0.3" />
      <circle cx="46" cy="46" r="0.8" fill="#7f1d1d" />
      <circle cx="54" cy="46" r="0.8" fill="#7f1d1d" />
      <circle cx="46" cy="54" r="0.8" fill="#7f1d1d" />
      <circle cx="54" cy="54" r="0.8" fill="#7f1d1d" />
      <circle cx="50" cy="50" r="0.8" fill="#7f1d1d" />
    </g>
  </g>
</svg>
