<svg xmlns="http://www.w3.org/2000/svg" viewBox="0 0 100 100" width="128" height="128">
  <defs>
    <pattern id="concrete-noise" width="20" height="20" patternUnits="userSpaceOnUse">
      <circle cx="4" cy="4" r="0.5" fill="#3a4148" opacity="0.3" />
      <circle cx="12" cy="16" r="0.8" fill="#3a4148" opacity="0.2" />
      <circle cx="16" cy="8" r="0.5" fill="#5c6670" opacity="0.2" />
      <circle cx="8" cy="12" r="0.5" fill="#2d3339" opacity="0.4" />
    </pattern>
  </defs>

  <rect x="0" y="0" width="100" height="100" fill="#4B5563" />
  <rect x="0" y="0" width="100" height="100" fill="url(#concrete-noise)" />

  <!-- Впитавшееся машинное масло (Грязь) -->
  <!-- Базовое размытое пятно (Используем векторные кривые с непрозрачностью вместо фильтра для идеальной совместимости) -->
  <path d="M 55 15 Q 75 10 85 30 T 75 55 T 60 48 T 45 35 Z" fill="#1c2024" opacity="0.15" />
  <path d="M 60 20 Q 75 18 80 32 T 70 45 T 62 40 T 52 30 Z" fill="#111827" opacity="0.2" />

  <line x1="0" y1="1" x2="100" y2="1" stroke="#606A75" stroke-width="2" />
  <line x1="1" y1="0" x2="1" y2="100" stroke="#606A75" stroke-width="2" />
  <line x1="0" y1="99" x2="100" y2="99" stroke="#374151" stroke-width="2" />
  <line x1="99" y1="0" x2="99" y2="100" stroke="#374151" stroke-width="2" />

  <!-- Следы царапин от волочения грузов -->
  <path d="M 15 70 L 35 80 M 18 67 L 38 77 M 25 65 L 42 74" fill="none" stroke="#374151" stroke-width="1" stroke-linecap="round" />
  <path d="M 15 71 L 35 81" fill="none" stroke="#606A75" stroke-width="0.5" stroke-linecap="round" /> <!-- Блик царапины -->
</svg>