<svg xmlns="http://www.w3.org/2000/svg" viewBox="0 0 100 100" width="128" height="128">
  <defs>
    <filter id="safe-shadow" x="-20%" y="-20%" width="140%" height="140%">
      <feGaussianBlur in="SourceAlpha" stdDeviation="3" result="blur" />
      <feOffset dx="2" dy="5" in="blur" result="offsetBlur" />
      <feColorMatrix in="offsetBlur" type="matrix" values="0 0 0 0 0   0 0 0 0 0   0 0 0 0 0   0 0 0 0.5 0" result="shadowMatrix" />
      <feMerge>
        <feMergeNode in="shadowMatrix" />
        <feMergeNode in="SourceGraphic" />
      </feMerge>
    </filter>

    <radialGradient id="glass-dome" cx="40%" cy="40%" r="60%">
      <stop offset="0%" stop-color="#334155" />
      <stop offset="60%" stop-color="#0f172a" />
      <stop offset="100%" stop-color="#000000" />
    </radialGradient>

    <radialGradient id="core-glow" cx="50%" cy="50%" r="50%">
      <stop offset="0%" stop-color="#FFFFFF" />
      <stop offset="40%" stop-color="#FEF08A" />
      <stop offset="80%" stop-color="#F59E0B" />
      <stop offset="100%" stop-color="#B45309" />
    </radialGradient>

    <radialGradient id="ambient-glow" cx="50%" cy="50%" r="50%">
      <stop offset="30%" stop-color="#FDE047" stop-opacity="0.8" />
      <stop offset="70%" stop-color="#F59E0B" stop-opacity="0.2" />
      <stop offset="100%" stop-color="#F59E0B" stop-opacity="0" />
    </radialGradient>
  </defs>

  <g filter="url(#safe-shadow)">
    <polygon points="52,30 66,36 72,50 66,64 52,70 38,64 32,50 38,36" fill="#37474F" stroke="#111" stroke-width="2" />
    <circle cx="52" cy="35" r="2" fill="#111" />
    <circle cx="52" cy="65" r="2" fill="#111" />
    <circle cx="37" cy="50" r="2" fill="#111" />
    <circle cx="67" cy="50" r="2" fill="#111" />
    <circle cx="52" cy="50" r="16" fill="#4a5568" stroke="#111" stroke-width="2" />
    <circle cx="52" cy="50" r="12" fill="#1e293b" />
    <circle cx="52" cy="50" r="14" fill="url(#glass-dome)" stroke="#000" stroke-width="1.5" />
    <circle cx="52" cy="50" r="5" fill="#78350f" />
  </g>

  <g id="light-on-state" opacity="1">
    <circle cx="52" cy="50" r="45" fill="url(#ambient-glow)" style="mix-blend-mode: screen;" />
    <circle cx="52" cy="50" r="14" fill="url(#core-glow)" />
    <circle cx="52" cy="50" r="16" fill="none" stroke="#FEF08A" stroke-width="2" opacity="0.8" />
  </g>

  <g filter="url(#safe-shadow)">
    <circle cx="52" cy="50" r="6" fill="none" stroke="#2d3748" stroke-width="3" />
    <line x1="52" y1="34" x2="52" y2="44" stroke="#2d3748" stroke-width="3" stroke-linecap="round"/>
    <line x1="52" y1="56" x2="52" y2="66" stroke="#2d3748" stroke-width="3" stroke-linecap="round"/>
    <line x1="36" y1="50" x2="46" y2="50" stroke="#2d3748" stroke-width="3" stroke-linecap="round"/>
    <line x1="58" y1="50" x2="68" y2="50" stroke="#2d3748" stroke-width="3" stroke-linecap="round"/>
  </g>
</svg>
