<svg xmlns="http://www.w3.org/2000/svg" viewBox="0 0 100 100" width="128" height="128">
  <defs>
    <filter id="arm-shadow" x="-20%" y="-20%" width="140%" height="140%">
      <feGaussianBlur in="SourceAlpha" stdDeviation="2" result="blur" />
      <feOffset dx="2" dy="4" in="blur" result="offsetBlur" />
      <feColorMatrix in="offsetBlur" type="matrix" values="0 0 0 0 0   0 0 0 0 0   0 0 0 0 0   0 0 0 0.4 0" result="shadowMatrix" />
      <feMerge>
        <feMergeNode in="shadowMatrix" />
        <feMergeNode in="SourceGraphic" />
      </feMerge>
    </filter>

    <linearGradient id="base-grad" x1="0" y1="0" x2="1" y2="1">
      <stop offset="0%" stop-color="#37474F" />
      <stop offset="100%" stop-color="#1e293b" />
    </linearGradient>

    <linearGradient id="yellow-metal" x1="0" y1="0" x2="0" y2="1">
      <stop offset="0%" stop-color="#FBBF24" />
      <stop offset="100%" stop-color="#D97706" />
    </linearGradient>
  </defs>

  <g filter="url(#arm-shadow)">
    <circle cx="50" cy="50" r="28" fill="url(#base-grad)" stroke="#111" stroke-width="2" />
    <circle cx="50" cy="28" r="2" fill="#94a3b8" />
    <circle cx="50" cy="72" r="2" fill="#94a3b8" />
    <circle cx="28" cy="50" r="2" fill="#94a3b8" />
    <circle cx="72" cy="50" r="2" fill="#94a3b8" />
    <circle cx="50" cy="50" r="20" fill="#0f172a" stroke="#1c2024" stroke-width="2" />
    <circle cx="50" cy="50" r="16" fill="none" stroke="#334155" stroke-width="1" stroke-dasharray="4,2" />
  </g>

  <g id="robotic-arm">
    <filter id="boom-shadow">
      <feDropShadow dx="0" dy="5" stdDeviation="2" flood-opacity="0.5"/>
    </filter>

    <g filter="url(#boom-shadow)">
      <rect x="22" y="38" width="28" height="24" rx="3" fill="#2d3748" stroke="#111" stroke-width="2" />
      <rect x="24" y="40" width="4" height="20" fill="#FBC02D" />
      <rect x="30" y="40" width="4" height="20" fill="#FBC02D" />

      <circle cx="50" cy="50" r="16" fill="url(#yellow-metal)" stroke="#111" stroke-width="2" />
      <circle cx="50" cy="50" r="6" fill="#1e293b" stroke="#111" stroke-width="1.5" />
      <circle cx="50" cy="50" r="2" fill="#64748b" />

      <polygon points="50,42 80,45 80,55 50,58" fill="url(#yellow-metal)" stroke="#111" stroke-width="2" stroke-linejoin="round" />
      <line x1="55" y1="46" x2="75" y2="47" stroke="#475569" stroke-width="2" />
      <line x1="68" y1="47" x2="75" y2="47" stroke="#cbd5e1" stroke-width="2" />

      <circle cx="80" cy="50" r="7" fill="#37474F" stroke="#111" stroke-width="2" />
      <circle cx="80" cy="50" r="2" fill="#FDE047" />

      <rect x="85" y="45" width="6" height="10" rx="1" fill="#64748b" stroke="#111" stroke-width="1.5" />
      <path d="M 90 46 L 96 38 L 100 42 L 91 48 Z" fill="#94a3b8" stroke="#111" stroke-width="1.5" stroke-linejoin="round" />
      <path d="M 90 54 L 96 62 L 100 58 L 91 52 Z" fill="#94a3b8" stroke="#111" stroke-width="1.5" stroke-linejoin="round" />
    </g>
  </g>
</svg>
